<svg width="24" height="24" viewBox="0 0 24 24" fill="none" xmlns="http://www.w3.org/2000/svg">
<path fill-rule="evenodd" clip-rule="evenodd" d="M11.5756 9.20929C10.8354 9.20929 10.1256 9.50331 9.60226 10.0267C9.0789 10.55 8.78488 11.2598 8.78488 12C8.78488 12.7401 9.0789 13.45 9.60226 13.9733C10.1256 14.4967 10.8354 14.7907 11.5756 14.7907C12.3157 14.7907 13.0255 14.4967 13.5489 13.9733C14.0723 13.45 14.3663 12.7401 14.3663 12C14.3663 11.2598 14.0723 10.55 13.5489 10.0267C13.0255 9.50331 12.3157 9.20929 11.5756 9.20929ZM9.90116 12C9.90116 11.5559 10.0776 11.13 10.3916 10.816C10.7056 10.502 11.1315 10.3256 11.5756 10.3256C12.0197 10.3256 12.4456 10.502 12.7596 10.816C13.0736 11.13 13.25 11.5559 13.25 12C13.25 12.4441 13.0736 12.87 12.7596 13.184C12.4456 13.498 12.0197 13.6744 11.5756 13.6744C11.1315 13.6744 10.7056 13.498 10.3916 13.184C10.0776 12.87 9.90116 12.4441 9.90116 12Z" fill="#6B7280"/>
<path fill-rule="evenodd" clip-rule="evenodd" d="M11.5561 4C11.2249 4 10.9488 4 10.7226 4.01488C10.4913 4.0242 10.2632 4.07198 10.0476 4.15628C9.79925 4.25904 9.57355 4.40973 9.38342 4.59973C9.19329 4.78973 9.04246 5.01532 8.93952 5.26363C8.83162 5.52409 8.80259 5.79944 8.79069 6.0986C8.78936 6.20799 8.76033 6.31525 8.70633 6.41038C8.65232 6.50551 8.57509 6.5854 8.48185 6.6426C8.38572 6.69494 8.27789 6.72204 8.16844 6.72139C8.05899 6.72074 7.95149 6.69236 7.85599 6.63888C7.59106 6.49898 7.33804 6.3866 7.05822 6.3494C6.79176 6.31435 6.52101 6.33212 6.26142 6.40171C6.00183 6.4713 5.75849 6.59134 5.54529 6.75498C5.36475 6.8997 5.20957 7.07349 5.08613 7.26921C4.95962 7.45823 4.8212 7.69712 4.65599 7.98363L4.63738 8.01637C4.47143 8.30288 4.33376 8.54177 4.23404 8.74567C4.12985 8.95851 4.04799 9.16837 4.01822 9.40056C3.94723 9.9386 4.09285 10.4828 4.42306 10.9135C4.59497 11.1375 4.81897 11.3005 5.07199 11.4597C5.16623 11.5156 5.24475 11.5945 5.30019 11.689C5.35564 11.7835 5.3862 11.8905 5.38901 12C5.3862 12.1095 5.35564 12.2165 5.30019 12.311C5.24475 12.4055 5.16623 12.4844 5.07199 12.5403C4.81897 12.6995 4.59571 12.8625 4.42306 13.0865C4.25943 13.2997 4.13939 13.543 4.0698 13.8026C4.00021 14.0622 3.98243 14.333 4.01748 14.5994C4.04799 14.8316 4.12911 15.0415 4.23329 15.2543C4.33376 15.4582 4.47143 15.6971 4.63738 15.9836L4.65599 16.0164C4.8212 16.3029 4.95962 16.5418 5.08613 16.7308C5.21785 16.9265 5.35925 17.1029 5.54529 17.2443C5.75843 17.408 6.00175 17.5282 6.26134 17.5979C6.52093 17.6677 6.79171 17.6855 7.05822 17.6506C7.33804 17.6134 7.59106 17.5018 7.85599 17.3611C7.9514 17.3078 8.05876 17.2795 8.16807 17.2788C8.27738 17.2782 8.38507 17.3052 8.48111 17.3574C8.57511 17.4139 8.65302 17.4936 8.70736 17.5888C8.7617 17.6841 8.79065 17.7917 8.79143 17.9014C8.80259 18.2006 8.83162 18.4759 8.94027 18.7364C9.04303 18.9847 9.19372 19.2104 9.38372 19.4006C9.57372 19.5907 9.79931 19.7415 10.0476 19.8445C10.2634 19.9338 10.4867 19.9687 10.7226 19.9844C10.9488 20 11.2249 20 11.5561 20H11.5933C11.9245 20 12.2005 20 12.4268 19.9851C12.6634 19.9687 12.8859 19.9338 13.1018 19.8437C13.3501 19.741 13.5758 19.5903 13.766 19.4003C13.9561 19.2103 14.1069 18.9847 14.2099 18.7364C14.3178 18.4759 14.3468 18.2006 14.3587 17.9014C14.3599 17.7919 14.3889 17.6845 14.4429 17.5892C14.4969 17.4939 14.5742 17.4139 14.6675 17.3567C14.7637 17.3044 14.8716 17.2775 14.981 17.2782C15.0905 17.279 15.1979 17.3075 15.2934 17.3611C15.5583 17.501 15.8113 17.6134 16.0912 17.6499C16.6292 17.7209 17.1734 17.5752 17.6041 17.245C17.7901 17.1021 17.9315 16.9265 18.0632 16.7308C18.1898 16.5418 18.3282 16.3029 18.4934 16.0164L18.512 15.9836C18.6779 15.6971 18.8156 15.4582 18.9153 15.2543C19.0195 15.0415 19.1014 14.8309 19.1312 14.5994C19.2021 14.0614 19.0565 13.5172 18.7263 13.0865C18.5544 12.8625 18.3304 12.6995 18.0774 12.5403C17.9831 12.4844 17.9046 12.4055 17.8492 12.311C17.7937 12.2165 17.7632 12.1095 17.7604 12C17.7604 11.7931 17.8735 11.5877 18.0774 11.4597C18.3304 11.3005 18.5537 11.1375 18.7263 10.9135C18.8899 10.7003 19.01 10.457 19.0796 10.1974C19.1492 9.93777 19.1669 9.66702 19.1319 9.40056C19.0968 9.17179 19.0239 8.95047 18.9161 8.74567C18.789 8.49844 18.6542 8.25522 18.512 8.01637L18.4934 7.98363C18.3575 7.74108 18.214 7.50283 18.0632 7.26921C17.9397 7.07376 17.7846 6.90022 17.6041 6.75572C17.3909 6.59196 17.1476 6.47178 16.888 6.40207C16.6284 6.33235 16.3577 6.31445 16.0912 6.3494C15.8113 6.3866 15.5583 6.49823 15.2934 6.63888C15.198 6.69222 15.0906 6.72054 14.9813 6.72119C14.872 6.72184 14.7643 6.6948 14.6683 6.6426C14.5747 6.58558 14.4972 6.50577 14.443 6.41062C14.3887 6.31548 14.3594 6.20813 14.3579 6.0986C14.3468 5.79944 14.3178 5.52409 14.2091 5.26363C14.1063 5.01526 13.9557 4.78956 13.7657 4.59943C13.5757 4.4093 13.3501 4.25847 13.1018 4.15553C12.8859 4.06623 12.6627 4.03126 12.4268 4.01563C12.2005 4 11.9245 4 11.5933 4H11.5561ZM10.4748 5.18698C10.5321 5.16316 10.6192 5.14158 10.7985 5.12893C10.9823 5.11628 11.2205 5.11628 11.5747 5.11628C11.9289 5.11628 12.1671 5.11628 12.3509 5.12893C12.5302 5.14158 12.6173 5.16316 12.6746 5.18698C12.9031 5.28149 13.0839 5.46233 13.1784 5.69079C13.2082 5.76223 13.2327 5.8746 13.2424 6.14028C13.2647 6.72967 13.5691 7.29749 14.1094 7.6093C14.6497 7.92112 15.2934 7.90102 15.8151 7.62567C16.0502 7.5014 16.1596 7.46642 16.237 7.45674C16.4815 7.42443 16.7289 7.49055 16.9246 7.64056C16.9738 7.67851 17.0363 7.74326 17.1367 7.89209C17.2402 8.0454 17.3592 8.25153 17.5364 8.55814C17.7135 8.86474 17.8318 9.07163 17.9129 9.23684C17.9925 9.39833 18.0171 9.48465 18.0245 9.54642C18.0569 9.79093 17.9907 10.0383 17.8407 10.234C17.7931 10.2958 17.7083 10.3732 17.4835 10.5146C16.9834 10.8287 16.6441 11.3764 16.6441 12C16.6441 12.6236 16.9834 13.1713 17.4835 13.4854C17.7083 13.6268 17.7931 13.7042 17.8407 13.766C17.9911 13.9617 18.0565 14.2087 18.0245 14.4536C18.0171 14.5153 17.9918 14.6024 17.9129 14.7632C17.8318 14.9291 17.7135 15.1353 17.5364 15.4419C17.3592 15.7485 17.2394 15.9546 17.1367 16.1079C17.0363 16.2567 16.9738 16.3215 16.9246 16.3594C16.7289 16.5094 16.4815 16.5756 16.237 16.5433C16.1596 16.5336 16.051 16.4986 15.8151 16.3743C15.2941 16.099 14.6497 16.0781 14.1094 16.39C13.5691 16.7018 13.2647 17.2703 13.2424 17.8597C13.2327 18.1254 13.2082 18.2378 13.1784 18.3092C13.1317 18.4222 13.0631 18.5248 12.9766 18.6113C12.8902 18.6977 12.7876 18.7663 12.6746 18.813C12.6173 18.8368 12.5302 18.8584 12.3509 18.8711C12.1671 18.8837 11.9289 18.8837 11.5747 18.8837C11.2205 18.8837 10.9823 18.8837 10.7985 18.8711C10.6192 18.8584 10.5321 18.8368 10.4748 18.813C10.3618 18.7663 10.2592 18.6977 10.1727 18.6113C10.0863 18.5248 10.0177 18.4222 9.97097 18.3092C9.9412 18.2378 9.91664 18.1254 9.90697 17.8597C9.88464 17.2703 9.58027 16.7025 9.03999 16.3907C8.49971 16.0789 7.85599 16.099 7.33432 16.3743C7.09915 16.4986 6.98976 16.5336 6.91236 16.5433C6.66785 16.5756 6.42051 16.5094 6.22473 16.3594C6.17562 16.3215 6.11311 16.2567 6.01264 16.1079C5.87265 15.89 5.73937 15.6679 5.61301 15.4419C5.4359 15.1353 5.31757 14.9284 5.23645 14.7632C5.15683 14.6017 5.13227 14.5153 5.12483 14.4536C5.09252 14.2091 5.15863 13.9617 5.30864 13.766C5.35627 13.7042 5.44111 13.6268 5.66585 13.4854C6.16594 13.1713 6.50529 12.6236 6.50529 12C6.50529 11.3764 6.16594 10.8287 5.66585 10.5146C5.44111 10.3732 5.35627 10.2958 5.30864 10.234C5.15863 10.0383 5.09252 9.79093 5.12483 9.54642C5.13227 9.48465 5.15757 9.39758 5.23645 9.23684C5.31757 9.07088 5.4359 8.86474 5.61301 8.55814C5.79013 8.25153 5.90994 8.0454 6.01264 7.89209C6.11311 7.74326 6.17562 7.67851 6.22473 7.64056C6.42051 7.49055 6.66785 7.42443 6.91236 7.45674C6.98976 7.46642 7.09841 7.5014 7.33432 7.62567C7.85525 7.90102 8.49971 7.92186 9.03999 7.6093C9.58027 7.29749 9.88464 6.72967 9.90697 6.14028C9.91664 5.8746 9.9412 5.76223 9.97097 5.69079C10.0655 5.46233 10.2463 5.28149 10.4748 5.18698Z" fill="#6B7280"/>
</svg>
